@startuml
entity Pasajero {
    + ID_Pasajero : int
    Nombre : string
    Apellido : string
    Documento : string
    Correo : string
    Teléfono : string
}

entity Vuelo {
    + ID_Vuelo : int
    Número_Vuelo : string
    Origen : string
    Destino : string
    Fecha : date
    Hora : time
    Estado : string
}

entity Checkin {
    + ID_Checkin : int
    Fecha_Hora : datetime
    Estado_Checkin : string
}

entity Notificación {
    + ID_Notificación : int
    Mensaje : string
    Fecha_Hora : datetime
    Estado_Notificación : string
}

entity Servicio {
    + ID_Servicio : int
    Nombre_Servicio : string
    Descripción : string
    Precio : float
}

entity Solicitud_Asistencia {
    + ID_Solicitud : int
    Tipo_Asistencia : string
    Descripción : string
    Estado_Solicitud : string
    Fecha_Hora : datetime
}

entity Puerta_Embarque {
    + ID_Puerta : int
    Número_Puerta : string
    Ubicación : string
    Estado_Puerta : string
}

Pasajero ||--|{ Vuelo : "Realiza"
Pasajero ||--|{ Checkin : "Hace"
Pasajero ||--|{ Notificación : "Recibe"
Pasajero ||--|{ Solicitud_Asistencia : "Solicita"
Vuelo ||--|{ Puerta_Embarque : "Asignado a"
Vuelo ||--|{ Servicio : "Ofrece"
@enduml